<?xml version="1.0" encoding="UTF-8"?><svg id="Layer_1" xmlns="http://www.w3.org/2000/svg" viewBox="0 0 825.75 220.11"><defs><style>.cls-1{fill:#facc15;}</style></defs><path class="cls-1" d="m217.46,136.56h.44l19.55-72.73c2.2-8.13,6.59-14.28,15.38-14.28,12.74,0,16.48,10.55,16.48,14.5,0,2.64-.88,5.93-2.42,10.11l-37.13,105.24c-7.69,21.97-16.48,33.4-36.69,33.4-14.28,0-20.21-7.03-20.21-14.72,0-8.57,6.15-12.96,14.72-12.96h3.3c4.17,0,8.79-.22,11.21-10.11l-33.4-95.14c-2.64-7.69-3.95-11.21-3.95-14.94,0-8.79,7.03-15.38,15.6-15.38s14.5,4.83,16.48,12.08l20.65,74.92Z"/><path class="cls-1" d="m379.61,136.35c0,13.4,3.29,16.48,3.29,21.53,0,7.25-6.81,12.3-14.5,12.3-13.84,0-18.46-8.79-18.9-18.68-12.52,13.84-27.02,18.68-43.94,18.68-18.24,0-36.25-12.52-36.25-32.74,0-26.58,20.21-34.05,44.82-36.91l19.55-2.2c7.69-.88,13.84-2.64,13.84-11.86s-9.45-13.18-20.21-13.18c-23.73,0-24.39,17.58-37.13,17.58-8.13,0-13.62-5.71-13.62-12.3,0-12.74,18.02-29,50.97-29,30.76,0,52.07,9.89,52.07,32.96v53.83Zm-32.08-23.07c-3.52,3.3-10.11,4.39-13.84,5.05l-11.65,1.76c-13.4,1.98-20.65,6.15-20.65,15.82,0,7.25,6.81,13.18,17.8,13.18,17.58,0,28.34-11.42,28.34-23.29v-12.52Z"/><path class="cls-1" d="m452.45,77.46h-46.36c-5.93,0-12.96-3.29-12.96-12.52s7.03-12.52,12.96-12.52h76.24c8.57,0,13.18,5.71,13.18,14.06,0,3.52-1.98,7.47-5.05,10.77l-59.32,65.04h52.73c5.93,0,12.96,3.3,12.96,12.52s-7.03,12.52-12.96,12.52h-81.73c-9.45,0-14.28-6.15-14.28-12.52,0-4.61,1.32-8.57,4.17-11.64l60.42-65.69Z"/><path class="cls-1" d="m566.86,77.46h-46.36c-5.93,0-12.96-3.29-12.96-12.52s7.03-12.52,12.96-12.52h76.24c8.57,0,13.18,5.71,13.18,14.06,0,3.52-1.98,7.47-5.05,10.77l-59.32,65.04h52.73c5.93,0,12.96,3.3,12.96,12.52s-7.03,12.52-12.96,12.52h-81.73c-9.45,0-14.28-6.15-14.28-12.52,0-4.61,1.32-8.57,4.17-11.64l60.42-65.69Z"/><path class="cls-1" d="m637.14,5.4c9.23,0,16.7,7.47,16.7,16.7s-7.47,16.7-16.7,16.7-16.7-7.47-16.7-16.7,7.47-16.7,16.7-16.7Zm-16.04,60.2c0-8.57,3.52-16.04,16.04-16.04s16.04,7.47,16.04,16.04v88.54c0,8.57-3.52,16.04-16.04,16.04s-16.04-7.47-16.04-16.04v-88.54Z"/><path class="cls-1" d="m137.49,164.23c-2.21,0-4.44-.73-6.29-2.23-13.71-11.12-21.58-27.62-21.58-45.25s7.87-34.12,21.58-45.25c4.29-3.48,10.59-2.82,14.07,1.47,3.48,4.29,2.82,10.59-1.47,14.07-9.01,7.31-14.18,18.14-14.18,29.71s5.17,22.41,14.18,29.71c4.29,3.48,4.95,9.78,1.47,14.07-1.98,2.44-4.86,3.7-7.77,3.7Z"/><path class="cls-1" d="m100.76,182.97c-2.21,0-4.44-.73-6.29-2.23-19.4-15.73-30.52-39.05-30.52-63.99s11.12-48.26,30.52-63.99c4.29-3.48,10.59-2.82,14.07,1.47,3.48,4.29,2.82,10.59-1.47,14.07-14.69,11.92-23.12,29.58-23.12,48.45s8.43,36.54,23.12,48.46c4.29,3.48,4.95,9.78,1.47,14.07-1.98,2.44-4.86,3.7-7.77,3.7Z"/><path class="cls-1" d="m64.03,201.71c-2.21,0-4.44-.73-6.29-2.23-25.08-20.34-39.46-50.49-39.46-82.73s14.38-62.39,39.46-82.73c4.29-3.48,10.59-2.82,14.07,1.47,3.48,4.29,2.82,10.59-1.47,14.07-20.37,16.52-32.06,41.02-32.06,67.19s11.69,50.67,32.06,67.2c4.29,3.48,4.95,9.78,1.47,14.07-1.98,2.44-4.86,3.7-7.77,3.7Z"/><path class="cls-1" d="m692.89,164.23c-2.91,0-5.8-1.26-7.77-3.7-3.48-4.29-2.82-10.59,1.47-14.07,9.01-7.31,14.18-18.14,14.18-29.71s-5.17-22.41-14.18-29.71c-4.29-3.48-4.95-9.78-1.47-14.07,3.48-4.29,9.78-4.95,14.07-1.47,13.72,11.12,21.58,27.62,21.58,45.25s-7.87,34.12-21.58,45.25c-1.85,1.5-4.08,2.23-6.29,2.23Z"/><path class="cls-1" d="m729.62,182.97c-2.91,0-5.8-1.26-7.77-3.7-3.48-4.29-2.82-10.59,1.47-14.07,14.69-11.92,23.12-29.58,23.12-48.46s-8.43-36.54-23.12-48.45c-4.29-3.48-4.95-9.78-1.47-14.07,3.48-4.29,9.78-4.95,14.07-1.47,19.4,15.73,30.52,39.05,30.52,63.99s-11.12,48.26-30.52,63.99c-1.85,1.5-4.08,2.23-6.29,2.23Z"/><path class="cls-1" d="m766.36,201.71c-2.91,0-5.8-1.26-7.77-3.7-3.48-4.29-2.82-10.59,1.47-14.07,20.37-16.52,32.06-41.02,32.06-67.2s-11.69-50.67-32.06-67.19c-4.29-3.48-4.95-9.78-1.47-14.07,3.48-4.29,9.78-4.95,14.07-1.47,25.08,20.34,39.46,50.49,39.46,82.73s-14.38,62.39-39.46,82.73c-1.85,1.5-4.08,2.23-6.29,2.23Z"/></svg>